<svg xmlns="http://www.w3.org/2000/svg" xmlns:xlink="http://www.w3.org/1999/xlink" viewBox="0 0 216.41 341.4"><defs><style>.cls-1{fill:url(#Naamloos_verloop_16);}.cls-2{fill:url(#Naamloos_verloop_16-2);}</style><linearGradient id="Naamloos_verloop_16" x1="-42.34" y1="78.49" x2="206.23" y2="222" gradientUnits="userSpaceOnUse"><stop offset="0" stop-color="#fdb7b2" stop-opacity="0.8"/><stop offset="1" stop-color="#fdbfa2" stop-opacity="0.8"/></linearGradient><linearGradient id="Naamloos_verloop_16-2" x1="11.47" y1="117.16" x2="260.04" y2="260.67" xlink:href="#Naamloos_verloop_16"/></defs><title>fig</title><g id="Laag_2" data-name="Laag 2"><g id="Laag_1-2" data-name="Laag 1"><path class="cls-1" d="M7.06,0H69.19A93.41,93.41,0,0,1,162.6,93.41V295.67a7.06,7.06,0,0,1-7.06,7.06H100.47A100.47,100.47,0,0,1,0,202.26V7.06A7.06,7.06,0,0,1,7.06,0Z"/><path class="cls-2" d="M60.87,38.67H123a93.41,93.41,0,0,1,93.41,93.41V334.34a7.06,7.06,0,0,1-7.06,7.06H154.28A100.47,100.47,0,0,1,53.81,240.93V45.73a7.06,7.06,0,0,1,7.06-7.06Z"/></g></g></svg>